<?xml version="1.0" standalone="no"?>
<!DOCTYPE svg PUBLIC "-//W3C//DTD SVG 20010904//EN"
 "http://www.w3.org/TR/2001/REC-SVG-20010904/DTD/svg10.dtd">
<svg version="1.0" xmlns="http://www.w3.org/2000/svg"
 width="189.000000pt" height="109.000000pt" viewBox="0 0 189.000000 109.000000"
 preserveAspectRatio="xMidYMid meet">

<g transform="translate(0.000000,109.000000) scale(0.100000,-0.100000)"
fill="#000000" stroke="none">
<path d="M1132 1060 c-13 -22 -16 -61 -4 -58 4 0 15 -2 25 -7 28 -12 67 10 67
38 0 13 -5 28 -12 35 -19 19 -62 14 -76 -8z"/>
<path d="M850 1001 c-19 -10 -43 -32 -53 -49 -23 -38 -25 -127 -6 -168 13 -25
71 -74 89 -74 5 0 3 19 -2 43 -13 55 -6 223 10 239 14 14 16 28 4 28 -4 0 -23
-8 -42 -19z"/>
<path d="M1025 986 c17 -41 21 -210 5 -251 -9 -24 -8 -26 12 -20 61 19 105
104 91 177 -12 67 -43 104 -100 122 -22 7 -22 7 -8 -28z"/>
<path d="M862 620 c-19 -27 -31 -53 -28 -58 3 -6 68 -45 143 -88 146 -84 198
-122 209 -156 5 -16 8 -18 15 -7 15 23 10 92 -10 134 -24 53 -49 74 -156 130
-49 27 -101 58 -115 71 l-25 23 -33 -49z"/>
<path d="M791 443 c-12 -10 -24 -35 -28 -55 l-6 -38 34 11 c64 22 84 53 53 83
-20 20 -27 20 -53 -1z"/>
<path d="M36 129 c-36 -28 -36 -80 0 -108 36 -28 52 -27 20 1 -14 13 -26 30
-27 38 -4 41 3 60 29 74 15 8 22 15 16 16 -6 0 -23 -9 -38 -21z"/>
<path d="M228 75 c4 -94 22 -89 22 6 0 48 -4 69 -12 69 -10 0 -12 -20 -10 -75z"/>
<path d="M348 74 c2 -42 7 -73 10 -69 4 4 7 19 7 33 0 23 4 27 28 27 15 -1 27
2 27 6 0 4 -12 9 -27 11 -22 2 -28 8 -28 28 0 22 4 25 33 25 17 0 32 3 32 7 0
5 -19 8 -42 8 l-43 0 3 -76z"/>
<path d="M506 142 c-2 -4 8 -8 22 -7 26 0 27 -2 30 -62 4 -84 22 -81 22 3 0
65 0 66 25 62 14 -3 25 -1 25 3 0 11 -117 12 -124 1z"/>
<path d="M760 135 c7 -9 15 -13 17 -11 7 7 -7 26 -19 26 -6 0 -6 -6 2 -15z"/>
<path d="M1146 129 c-33 -26 -36 -77 -6 -104 11 -10 22 -16 25 -13 3 3 -1 11
-10 18 -16 13 -20 66 -7 87 4 7 19 16 32 22 15 6 19 10 9 10 -9 1 -28 -8 -43
-20z"/>
<path d="M1210 146 c0 -2 7 -9 15 -16 9 -7 15 -8 15 -2 0 5 -7 12 -15 16 -8 3
-15 4 -15 2z"/>
<path d="M1410 137 c35 -18 48 -69 25 -103 -12 -19 -13 -25 -3 -22 20 7 39 50
33 78 -7 29 -40 60 -64 60 -10 0 -8 -4 9 -13z"/>
<path d="M1617 140 c42 -17 57 -78 26 -112 -9 -10 -11 -18 -5 -18 16 0 42 41
42 68 0 27 -42 72 -67 71 -15 0 -14 -2 4 -9z"/>
<path d="M1758 73 c4 -92 24 -94 26 -3 1 59 3 65 26 71 20 6 17 7 -15 7 l-40
-2 3 -73z"/>
<path d="M115 130 c3 -5 8 -10 11 -10 2 0 4 5 4 10 0 6 -5 10 -11 10 -5 0 -7
-4 -4 -10z"/>
<path d="M1353 132 c-33 -21 -31 -103 2 -116 12 -4 11 1 -2 28 -14 31 -14 37
0 65 8 17 15 31 14 31 -1 0 -7 -4 -14 -8z"/>
<path d="M1557 122 c-26 -29 -22 -77 9 -101 15 -12 34 -21 43 -20 13 0 14 1 1
6 -33 12 -50 37 -50 73 0 20 5 41 12 48 7 7 10 12 7 12 -3 0 -13 -8 -22 -18z"/>
<path d="M1854 119 c21 -30 20 -58 -1 -89 -16 -24 -16 -24 1 -11 41 34 43 91
4 112 -20 11 -20 10 -4 -12z"/>
<path d="M706 121 c-7 -11 1 -23 27 -45 21 -17 37 -39 37 -49 0 -10 5 -15 10
-12 21 13 9 44 -24 65 -19 11 -36 29 -38 38 -3 14 -5 15 -12 3z"/>
<path d="M880 75 c0 -8 2 -15 4 -15 2 0 6 7 10 15 3 8 1 15 -4 15 -6 0 -10 -7
-10 -15z"/>
<path d="M1021 74 c0 -11 3 -14 6 -6 3 7 2 16 -1 19 -3 4 -6 -2 -5 -13z"/>
<path d="M114 40 c1 -39 12 -39 18 0 3 19 0 30 -7 30 -7 0 -12 -13 -11 -30z"/>
<path d="M1230 38 c0 -36 12 -31 16 7 1 14 -2 25 -7 25 -5 0 -9 -14 -9 -32z"/>
<path d="M700 25 c0 -8 4 -15 10 -15 5 0 7 7 4 15 -4 8 -8 15 -10 15 -2 0 -4
-7 -4 -15z"/>
<path d="M1388 3 c7 -3 16 -2 19 1 4 3 -2 6 -13 5 -11 0 -14 -3 -6 -6z"/>
</g>
</svg>
